<!-- Home Icon -->
<svg width="24" height="24" xmlns="http://www.w3.org/2000/svg">
  <path d="M12 2L2 12h3v8h6v-6h2v6h6v-8h3L12 2z" fill="#999999"/>
</svg>

<!-- Home Active Icon -->
<svg width="24" height="24" xmlns="http://www.w3.org/2000/svg">
  <path d="M12 2L2 12h3v8h6v-6h2v6h6v-8h3L12 2z" fill="#3f51b5"/>
</svg>

<!-- Order Icon -->
<svg width="24" height="24" xmlns="http://www.w3.org/2000/svg">
  <path d="M19 3H5c-1.1 0-2 .9-2 2v14c0 1.1.9 2 2 2h14c1.1 0 2-.9 2-2V5c0-1.1-.9-2-2-2zm-5 14h-2v-2h2v2zm0-4h-2V7h2v6z" fill="#999999"/>
</svg>

<!-- Order Active Icon -->
<svg width="24" height="24" xmlns="http://www.w3.org/2000/svg">
  <path d="M19 3H5c-1.1 0-2 .9-2 2v14c0 1.1.9 2 2 2h14c1.1 0 2-.9 2-2V5c0-1.1-.9-2-2-2zm-5 14h-2v-2h2v2zm0-4h-2V7h2v6z" fill="#3f51b5"/>
</svg>

<!-- Inventory Icon -->
<svg width="24" height="24" xmlns="http://www.w3.org/2000/svg">
  <path d="M19 3H5c-1.1 0-2 .9-2 2v14c0 1.1.9 2 2 2h14c1.1 0 2-.9 2-2V5c0-1.1-.9-2-2-2zm-2 10h-4v4h-2v-4H7v-2h4V7h2v4h4v2z" fill="#999999"/>
</svg>

<!-- Inventory Active Icon -->
<svg width="24" height="24" xmlns="http://www.w3.org/2000/svg">
  <path d="M19 3H5c-1.1 0-2 .9-2 2v14c0 1.1.9 2 2 2h14c1.1 0 2-.9 2-2V5c0-1.1-.9-2-2-2zm-2 10h-4v4h-2v-4H7v-2h4V7h2v4h4v2z" fill="#3f51b5"/>
</svg>

<!-- Profile Icon -->
<svg width="24" height="24" xmlns="http://www.w3.org/2000/svg">
  <path d="M12 12c2.21 0 4-1.79 4-4s-1.79-4-4-4-4 1.79-4 4 1.79 4 4 4zm0 2c-2.67 0-8 1.34-8 4v2h16v-2c0-2.66-5.33-4-8-4z" fill="#999999"/>
</svg>

<!-- Profile Active Icon -->
<svg width="24" height="24" xmlns="http://www.w3.org/2000/svg">
  <path d="M12 12c2.21 0 4-1.79 4-4s-1.79-4-4-4-4 1.79-4 4 1.79 4 4 4zm0 2c-2.67 0-8 1.34-8 4v2h16v-2c0-2.66-5.33-4-8-4z" fill="#3f51b5"/>
</svg> 